<?xml version="1.0" standalone="no"?>
<!DOCTYPE svg PUBLIC "-//W3C//DTD SVG 20010904//EN"
 "http://www.w3.org/TR/2001/REC-SVG-20010904/DTD/svg10.dtd">
<svg version="1.0" xmlns="http://www.w3.org/2000/svg"
 width="800.000000pt" height="800.000000pt" viewBox="0 0 800.000000 800.000000"
 preserveAspectRatio="xMidYMid meet">

<g transform="translate(0.000000,800.000000) scale(0.100000,-0.100000)"
fill="#000000" stroke="none">
<path d="M2928 7823 l-35 -38 13 -50 c21 -75 12 -94 -57 -140 -60 -40 -129
-119 -129 -148 0 -40 -110 -87 -202 -87 -16 0 -63 -16 -105 -36 -68 -32 -82
-36 -129 -30 -30 3 -68 12 -86 20 -54 23 -129 44 -199 56 l-66 12 -53 -38
c-51 -37 -53 -37 -96 -26 -24 7 -58 12 -74 12 -16 0 -48 10 -70 21 -29 15 -51
20 -77 16 -27 -5 -49 1 -97 25 -88 44 -167 100 -205 144 -65 78 -121 158 -121
176 0 10 -13 32 -29 50 -25 28 -31 31 -45 19 -11 -10 -15 -23 -11 -40 4 -23
-2 -31 -50 -65 -47 -34 -55 -44 -55 -71 0 -18 9 -44 20 -58 11 -14 24 -47 29
-72 6 -32 20 -58 43 -83 50 -53 68 -83 68 -112 0 -16 12 -38 30 -55 20 -19 28
-35 24 -45 -4 -8 -10 -31 -13 -50 -5 -26 -17 -42 -50 -65 -23 -16 -67 -54 -96
-82 -29 -29 -61 -53 -71 -53 -11 0 -30 -7 -43 -16 -13 -9 -41 -21 -62 -25 -45
-10 -65 -3 -118 43 -24 21 -40 28 -57 24 -13 -4 -43 1 -66 9 -84 29 -165 14
-152 -28 15 -50 49 -79 143 -127 100 -50 143 -89 157 -144 3 -14 10 -29 15
-32 17 -10 9 -45 -16 -78 -21 -28 -24 -38 -15 -60 18 -49 12 -89 -21 -129 -28
-34 -30 -42 -26 -95 3 -31 8 -68 11 -82 5 -20 -6 -42 -59 -113 -36 -48 -71
-89 -78 -91 -61 -16 -73 -25 -112 -81 -38 -54 -50 -63 -111 -87 -85 -33 -97
-34 -143 -5 -37 23 -97 47 -118 47 -25 0 -12 -39 28 -86 59 -71 75 -109 84
-199 13 -125 10 -185 -13 -248 -12 -32 -26 -85 -32 -117 -12 -68 1 -114 47
-162 26 -27 26 -29 15 -90 -6 -35 -14 -95 -17 -134 -5 -61 -3 -74 15 -96 29
-37 25 -70 -14 -117 -19 -23 -38 -56 -41 -73 -4 -18 -20 -71 -36 -117 -31 -89
-40 -212 -19 -252 6 -10 13 -49 17 -87 4 -50 13 -78 34 -111 68 -105 96 -245
62 -311 -10 -19 -38 -50 -63 -68 -65 -48 -69 -67 -41 -170 13 -48 28 -127 33
-175 12 -106 4 -131 -58 -186 -24 -21 -44 -45 -44 -53 0 -8 20 -47 45 -88 24
-41 54 -104 66 -140 25 -74 33 -82 72 -74 37 8 53 -8 68 -67 7 -28 29 -68 51
-95 45 -55 48 -64 51 -169 2 -80 2 -80 -24 -83 -15 -2 -39 -16 -55 -33 -15
-16 -35 -29 -45 -29 -9 0 -28 -10 -43 -21 -24 -19 -27 -26 -21 -60 6 -34 4
-39 -22 -55 -15 -10 -30 -19 -32 -21 -3 -2 14 -22 36 -46 22 -23 49 -58 58
-77 10 -19 23 -38 29 -42 10 -7 62 -4 138 8 33 5 43 2 74 -25 37 -33 55 -34
102 -5 l22 14 0 -98 c0 -68 -5 -108 -15 -129 -20 -39 -6 -79 31 -93 15 -6 29
-8 32 -5 14 13 30 -19 25 -50 -4 -22 1 -48 15 -77 27 -59 35 -94 33 -156 -2
-89 37 -132 121 -132 18 0 49 -15 81 -39 94 -70 141 -90 273 -121 71 -16 144
-30 162 -30 36 0 47 -9 126 -107 26 -34 63 -69 82 -79 25 -14 38 -30 49 -64
18 -53 79 -136 115 -156 14 -7 46 -22 73 -33 55 -23 57 -35 29 -142 -13 -49
-26 -73 -48 -92 -43 -36 -88 -139 -80 -182 12 -61 28 -62 98 -7 55 42 86 77
140 155 10 15 34 21 103 28 50 5 128 14 174 19 79 10 86 10 110 -9 14 -12 39
-28 54 -37 27 -15 32 -14 82 12 47 23 58 25 82 15 15 -6 36 -25 45 -42 21 -36
72 -59 132 -59 67 0 80 -18 73 -102 l-6 -68 32 0 c26 0 43 11 86 54 70 71 97
82 164 68 92 -20 183 -23 221 -7 46 20 109 19 149 -1 18 -9 53 -36 79 -60 56
-52 82 -55 150 -19 52 27 69 25 93 -11 19 -29 30 -25 102 38 50 43 135 88 167
88 11 0 27 7 35 15 12 10 55 16 151 21 102 5 146 11 180 26 25 11 73 22 108
25 l63 6 -3 -39 c-3 -36 -1 -39 22 -36 14 1 35 -3 47 -9 18 -10 28 -6 68 25
77 58 152 90 212 90 75 0 87 -10 198 -164 35 -49 62 -57 135 -41 30 7 77 16
103 20 38 6 57 17 91 50 l44 43 31 -17 c18 -9 37 -15 43 -13 6 2 27 33 47 69
35 60 39 64 76 67 22 2 49 12 60 22 30 27 93 34 138 15 46 -19 132 -22 287
-11 110 8 122 7 258 -24 138 -32 144 -32 185 -16 109 41 96 175 -23 240 -39
21 -75 31 -151 39 -55 6 -99 16 -99 21 0 19 39 76 52 78 7 0 40 2 73 3 78 3
111 17 136 59 l21 35 36 -24 c48 -32 92 -40 136 -25 126 41 109 216 -26 259
-20 7 -39 18 -41 26 -10 24 20 24 54 -1 61 -45 122 -50 186 -15 32 16 53 73
53 140 0 34 4 61 8 61 4 0 26 -13 48 -29 51 -37 86 -45 126 -28 95 40 107 156
30 270 l-33 47 20 26 c21 27 20 35 -6 66 -10 10 -12 25 -8 39 11 32 90 114
140 143 24 14 58 49 81 81 39 57 76 85 112 85 11 0 31 9 46 21 32 25 86 116
86 144 0 22 72 124 97 139 26 15 125 -3 165 -29 21 -14 40 -25 43 -25 3 0 5
27 5 59 0 33 4 71 10 86 9 23 6 28 -24 46 -40 23 -86 89 -86 121 0 13 14 52
30 86 34 72 36 95 15 145 -25 61 -20 83 35 141 42 45 50 59 50 91 0 35 -41
155 -61 181 -16 20 -11 88 11 149 12 33 24 71 27 85 6 33 -38 150 -81 215 -62
95 -69 114 -77 235 -6 101 -11 124 -40 185 -58 121 -43 196 71 375 56 86 81
145 73 168 -3 7 -16 17 -28 22 -12 5 -33 30 -47 57 -24 44 -24 51 -13 91 7 24
29 64 49 89 52 67 49 120 -12 185 -22 24 -24 32 -16 70 4 24 8 95 9 158 0 63
3 120 7 126 4 7 23 15 43 18 19 4 37 11 40 17 4 5 -14 33 -39 61 -25 29 -46
60 -46 69 0 9 16 36 35 60 19 24 35 50 35 57 0 18 -39 72 -51 72 -6 0 -35 -16
-66 -36 -64 -41 -97 -40 -114 4 -6 15 -15 34 -20 42 -5 8 -13 25 -19 38 -7 16
-18 22 -41 22 -42 0 -104 60 -95 93 7 31 -9 88 -35 121 -27 34 -20 76 22 139
35 54 32 82 -13 122 -25 22 -29 32 -24 57 3 17 22 48 41 69 40 45 42 55 15 89
l-19 25 -29 -22 c-17 -12 -56 -36 -86 -53 -54 -29 -58 -29 -86 -15 -16 8 -50
18 -75 22 -38 5 -51 2 -75 -16 -27 -19 -34 -20 -75 -10 -25 6 -45 16 -45 22 0
7 -17 28 -37 48 -21 20 -45 46 -54 59 -22 33 -49 21 -49 -23 0 -19 6 -40 14
-47 17 -13 12 -36 -9 -44 -8 -3 -36 5 -63 16 -77 33 -95 93 -42 143 38 37 38
54 -2 86 -30 25 -31 29 -20 53 7 15 28 34 47 42 41 17 58 44 49 80 -6 24 -9
25 -48 19 -115 -18 -160 -16 -201 7 -39 23 -40 24 -49 100 -8 68 -6 84 13 136
36 101 32 113 -61 180 -31 23 -60 51 -63 63 -4 13 3 43 20 81 23 51 26 69 21
114 -10 84 -37 147 -66 154 -27 6 -88 -18 -109 -44 -7 -8 -34 -27 -59 -42 -60
-35 -70 -49 -78 -105 -6 -45 -7 -46 -58 -63 -29 -9 -59 -16 -66 -16 -7 0 -37
-12 -66 -27 l-53 -26 -35 26 c-38 29 -72 33 -123 15 -29 -11 -36 -10 -60 10
-54 44 -112 64 -159 57 -56 -8 -75 -27 -67 -66 5 -27 -1 -37 -53 -90 -32 -32
-66 -59 -74 -59 -33 0 -98 98 -83 124 4 7 25 27 45 45 33 29 37 37 43 99 6 69
9 77 50 152 13 25 25 53 25 62 0 26 -40 32 -91 14 -24 -9 -52 -16 -61 -16 -9
0 -34 -20 -55 -44 -30 -35 -45 -45 -73 -46 -60 -3 -67 -1 -111 36 -43 36 -45
36 -112 31 -40 -4 -86 -15 -108 -26 -28 -15 -44 -18 -57 -11 -32 18 -87 38
-162 60 -41 12 -82 24 -90 27 -19 6 -112 23 -168 30 -29 3 -50 0 -66 -11 -42
-27 -87 -23 -138 12 -58 40 -92 47 -143 30 -29 -9 -45 -22 -57 -47 -29 -58
-65 -72 -184 -70 -115 2 -139 -7 -170 -61 -10 -16 -23 -30 -29 -30 -6 0 -22
-8 -35 -17 -14 -10 -40 -23 -59 -30 -29 -10 -39 -8 -79 13 -56 30 -62 38 -62
90 0 47 -6 54 -72 78 -26 10 -80 41 -120 71 -63 45 -152 85 -193 85 -6 0 -27
-17 -47 -37z"/>
<path d="M6368 7850 c-24 -15 -58 -74 -58 -102 0 -25 27 -58 47 -58 6 0 22 -9
36 -20 27 -21 42 -15 26 10 -13 22 -11 27 15 34 28 7 37 26 30 64 -11 55 -60
92 -96 72z"/>
<path d="M7394 1569 c-15 -17 -19 -37 -19 -98 0 -42 -6 -86 -13 -98 -16 -29
-15 -58 3 -93 21 -41 71 -42 114 -1 35 33 38 55 16 108 -12 29 -13 43 -5 64
21 51 -20 139 -66 139 -6 0 -19 -9 -30 -21z"/>
</g>
</svg>
